<svg width="385" height="422" viewBox="0 0 385 422" fill="none" xmlns="http://www.w3.org/2000/svg">
<g clip-path="url(#clip0_47_466)">
<path d="M368.745 373H11.2908C11.2526 373 11.2148 372.992 11.1795 372.977C11.1442 372.962 11.1122 372.939 11.0852 372.911C11.0582 372.884 11.0368 372.85 11.0221 372.814C11.0075 372.778 11 372.738 11 372.699C11 372.66 11.0075 372.62 11.0221 372.584C11.0368 372.548 11.0582 372.514 11.0852 372.486C11.1122 372.459 11.1442 372.436 11.1795 372.421C11.2148 372.406 11.2526 372.398 11.2908 372.398H368.745C368.822 372.398 368.896 372.43 368.95 372.486C369.005 372.543 369.035 372.619 369.035 372.699C369.035 372.779 369.005 372.855 368.95 372.911C368.896 372.968 368.822 373 368.745 373H368.745Z" fill="#03624C"/>
<g opacity="0.65">
<path d="M368.745 373H11.2908C11.2526 373 11.2148 372.992 11.1795 372.977C11.1442 372.962 11.1122 372.939 11.0852 372.911C11.0582 372.884 11.0368 372.85 11.0221 372.814C11.0075 372.778 11 372.738 11 372.699C11 372.66 11.0075 372.62 11.0221 372.584C11.0368 372.548 11.0582 372.514 11.0852 372.486C11.1122 372.459 11.1442 372.436 11.1795 372.421C11.2148 372.406 11.2526 372.398 11.2908 372.398H368.745C368.822 372.398 368.896 372.43 368.95 372.486C369.005 372.543 369.035 372.619 369.035 372.699C369.035 372.779 369.005 372.855 368.95 372.911C368.896 372.968 368.822 373 368.745 373H368.745Z" fill="#03624C"/>
</g>
<path d="M36.177 372.471L35.3611 372.309L48.1135 241.344L48.9294 241.506L36.177 372.471Z" fill="#494949"/>
<path d="M83.6611 372.471L82.8452 372.309L95.5975 241.344L96.413 241.506L83.6611 372.471Z" fill="#494949"/>
<path d="M188.621 372.471L189.437 372.309L176.685 241.344L175.869 241.506L188.621 372.471Z" fill="#494949"/>
<path d="M141.138 372.471L141.953 372.309L129.201 241.344L128.385 241.506L141.138 372.471Z" fill="#494949"/>
<path d="M124.226 183.707L123.402 183.82L130.852 241.484L131.675 241.37L124.226 183.707Z" fill="#494949"/>
<path d="M38.7177 183.706L37.8942 183.819L45.3438 241.483L46.1674 241.369L38.7177 183.706Z" fill="#494949"/>
<path d="M131.604 237.203H47.9676C45.7111 237.203 43.8818 239.094 43.8818 241.426V241.426C43.8818 243.758 45.7111 245.649 47.9676 245.649H131.604C133.861 245.649 135.69 243.758 135.69 241.426V241.426C135.69 239.094 133.861 237.203 131.604 237.203Z" fill="#03624C"/>
<path opacity="0.8" d="M131.604 237.203H47.9676C45.7111 237.203 43.8818 239.094 43.8818 241.426V241.426C43.8818 243.758 45.7111 245.649 47.9676 245.649H131.604C133.861 245.649 135.69 243.758 135.69 241.426V241.426C135.69 239.094 133.861 237.203 131.604 237.203Z" fill="white"/>
<path d="M131.603 246.078H47.9676C46.7812 246.066 45.6473 245.571 44.8124 244.7C43.9775 243.828 43.5092 242.652 43.5092 241.426C43.5092 240.199 43.9775 239.023 44.8124 238.152C45.6473 237.281 46.7812 236.785 47.9676 236.773H131.603C132.789 236.785 133.923 237.281 134.758 238.152C135.593 239.023 136.061 240.199 136.061 241.426C136.061 242.652 135.593 243.828 134.758 244.7C133.923 245.571 132.789 246.066 131.603 246.078ZM47.9676 237.632C47.0009 237.643 46.0772 238.047 45.3972 238.757C44.7172 239.468 44.3358 240.426 44.3358 241.426C44.3358 242.425 44.7172 243.384 45.3972 244.094C46.0772 244.804 47.0009 245.209 47.9676 245.219H131.603C132.569 245.209 133.493 244.804 134.173 244.094C134.853 243.384 135.234 242.425 135.234 241.426C135.234 240.426 134.853 239.468 134.173 238.757C133.493 238.047 132.569 237.643 131.603 237.632H47.9676Z" fill="#03624C"/>
<path d="M177.508 237.203H93.8718C91.6152 237.203 89.7859 239.094 89.7859 241.426V241.426C89.7859 243.758 91.6152 245.649 93.8718 245.649H177.508C179.765 245.649 181.594 243.758 181.594 241.426V241.426C181.594 239.094 179.765 237.203 177.508 237.203Z" fill="white"/>
<path d="M177.509 246.078H93.8722C93.2774 246.084 92.6874 245.968 92.1362 245.737C91.585 245.506 91.0837 245.164 90.6611 244.731C90.2385 244.299 89.903 243.784 89.674 243.217C89.4451 242.649 89.3272 242.041 89.3272 241.426C89.3272 240.811 89.4451 240.203 89.674 239.635C89.903 239.068 90.2385 238.553 90.6611 238.12C91.0837 237.688 91.585 237.346 92.1362 237.115C92.6874 236.884 93.2774 236.768 93.8722 236.774H177.509C178.104 236.768 178.694 236.884 179.245 237.115C179.796 237.346 180.297 237.688 180.72 238.12C181.143 238.553 181.478 239.068 181.707 239.635C181.936 240.203 182.054 240.811 182.054 241.426C182.054 242.041 181.936 242.649 181.707 243.217C181.478 243.784 181.143 244.299 180.72 244.731C180.297 245.164 179.796 245.506 179.245 245.737C178.694 245.968 178.104 246.084 177.509 246.078ZM93.8722 237.632C93.3869 237.627 92.9053 237.721 92.4555 237.909C92.0056 238.098 91.5963 238.376 91.2513 238.729C90.9063 239.082 90.6324 239.502 90.4455 239.965C90.2585 240.428 90.1623 240.924 90.1623 241.426C90.1623 241.927 90.2585 242.424 90.4455 242.887C90.6324 243.35 90.9063 243.77 91.2513 244.123C91.5963 244.475 92.0056 244.754 92.4555 244.942C92.9053 245.131 93.3869 245.225 93.8722 245.219H177.509C177.994 245.225 178.476 245.131 178.925 244.942C179.375 244.754 179.785 244.475 180.13 244.123C180.475 243.77 180.749 243.35 180.935 242.887C181.122 242.424 181.219 241.927 181.219 241.426C181.219 240.924 181.122 240.428 180.935 239.965C180.749 239.502 180.475 239.082 180.13 238.729C179.785 238.376 179.375 238.098 178.925 237.909C178.476 237.721 177.994 237.627 177.509 237.632H93.8722Z" fill="#03624C"/>
<path d="M119.644 183.762H38.5305C37.2044 183.762 35.9236 183.264 34.9272 182.359C33.9308 181.455 33.2869 180.207 33.1156 178.848L27.7502 136.265C27.6499 135.469 27.715 134.66 27.9412 133.892C28.1675 133.124 28.5496 132.415 29.0622 131.812C29.5747 131.209 30.2058 130.726 30.9134 130.395C31.621 130.064 32.3888 129.893 33.1655 129.893H114.279C115.605 129.893 116.886 130.391 117.882 131.296C118.878 132.2 119.522 133.448 119.694 134.807L125.059 177.39C125.159 178.186 125.094 178.995 124.868 179.763C124.642 180.531 124.26 181.24 123.747 181.843C123.235 182.446 122.604 182.929 121.896 183.26C121.188 183.591 120.421 183.762 119.644 183.762Z" fill="#03624C"/>
<path opacity="0.8" d="M119.644 183.762H38.5305C37.2044 183.762 35.9236 183.264 34.9272 182.359C33.9308 181.455 33.2869 180.207 33.1156 178.848L27.7502 136.265C27.6499 135.469 27.715 134.66 27.9412 133.892C28.1675 133.124 28.5496 132.415 29.0622 131.812C29.5747 131.209 30.2058 130.726 30.9134 130.395C31.621 130.064 32.3888 129.893 33.1655 129.893H114.279C115.605 129.893 116.886 130.391 117.882 131.296C118.878 132.2 119.522 133.448 119.694 134.807L125.059 177.39C125.159 178.186 125.094 178.995 124.868 179.763C124.642 180.531 124.26 181.24 123.747 181.843C123.235 182.446 122.604 182.929 121.896 183.26C121.188 183.591 120.421 183.762 119.644 183.762Z" fill="white"/>
<path d="M119.644 184.192H38.5304C37.1044 184.188 35.728 183.651 34.6564 182.678C33.5849 181.706 32.891 180.365 32.7035 178.904L27.338 136.321C27.2301 135.464 27.3002 134.594 27.5436 133.768C27.787 132.941 28.1982 132.178 28.7497 131.529C29.3012 130.88 29.9803 130.36 30.7417 130.004C31.5031 129.648 32.3293 129.464 33.165 129.464H114.279C115.705 129.467 117.082 130.005 118.153 130.978C119.225 131.95 119.919 133.292 120.106 134.753L125.471 177.335C125.579 178.192 125.509 179.062 125.266 179.888C125.022 180.715 124.611 181.478 124.059 182.127C123.508 182.776 122.829 183.296 122.067 183.652C121.306 184.008 120.48 184.192 119.644 184.192V184.192ZM33.165 130.322C32.4475 130.322 31.7381 130.48 31.0844 130.786C30.4307 131.092 29.8477 131.538 29.3742 132.095C28.9007 132.653 28.5477 133.308 28.3387 134.017C28.1297 134.727 28.0696 135.474 28.1623 136.209L33.5273 178.792C33.6883 180.047 34.284 181.198 35.2041 182.033C36.1241 182.868 37.306 183.33 38.5304 183.333H119.644C120.362 183.333 121.071 183.175 121.725 182.869C122.379 182.563 122.962 182.116 123.436 181.559C123.909 181.001 124.262 180.346 124.471 179.637C124.68 178.927 124.74 178.179 124.647 177.444L119.282 134.862C119.121 133.607 118.525 132.456 117.605 131.621C116.685 130.786 115.503 130.324 114.279 130.322H33.165Z" fill="#03624C"/>
<path d="M124.231 183.762H43.1174C41.7912 183.762 40.5103 183.264 39.5139 182.359C38.5174 181.455 37.8734 180.207 37.7021 178.848L32.3367 136.265C32.2365 135.469 32.3017 134.66 32.528 133.892C32.7543 133.124 33.1364 132.415 33.6489 131.812C34.1614 131.209 34.7925 130.726 35.5 130.395C36.2076 130.064 36.9753 129.893 37.7519 129.893H118.866C120.192 129.893 121.473 130.391 122.469 131.296C123.466 132.2 124.11 133.448 124.281 134.807L129.646 177.39C129.746 178.186 129.681 178.995 129.455 179.763C129.229 180.531 128.847 181.24 128.334 181.843C127.821 182.446 127.19 182.929 126.483 183.26C125.775 183.591 125.008 183.762 124.231 183.762Z" fill="white"/>
<path d="M124.231 184.192H43.1174C41.6913 184.188 40.3148 183.651 39.2433 182.678C38.1717 181.706 37.4778 180.365 37.2904 178.904L31.925 136.321C31.817 135.464 31.8871 134.594 32.1305 133.768C32.374 132.941 32.7851 132.178 33.3366 131.529C33.8881 130.88 34.5672 130.36 35.3286 130.004C36.09 129.648 36.9162 129.464 37.7519 129.464H118.866C120.292 129.467 121.668 130.005 122.74 130.978C123.812 131.95 124.505 133.292 124.693 134.753L130.058 177.335C130.166 178.192 130.096 179.062 129.852 179.889C129.609 180.715 129.198 181.478 128.646 182.127C128.095 182.776 127.416 183.296 126.654 183.652C125.893 184.008 125.067 184.192 124.231 184.192V184.192ZM37.7519 130.322C37.0344 130.322 36.325 130.48 35.6713 130.786C35.0176 131.092 34.4345 131.538 33.961 132.095C33.4875 132.653 33.1344 133.308 32.9254 134.017C32.7163 134.727 32.6561 135.474 32.7488 136.209L38.1142 178.792C38.275 180.047 38.8707 181.198 39.7908 182.033C40.7109 182.868 41.8929 183.33 43.1174 183.333H124.231C124.949 183.333 125.658 183.175 126.312 182.869C126.966 182.563 127.549 182.116 128.023 181.559C128.496 181.002 128.849 180.346 129.058 179.637C129.267 178.927 129.327 178.179 129.235 177.444L123.869 134.862C123.708 133.607 123.113 132.455 122.193 131.62C121.272 130.785 120.091 130.323 118.866 130.32L37.7519 130.322Z" fill="#03624C"/>
<path d="M238.629 350.567C238.629 350.567 240.857 362.501 251.667 363.165C262.478 363.83 260.134 372.731 260.134 372.731H218.821V351.399L238.629 350.567Z" fill="#030F0F"/>
<path d="M160.032 343.034C160.032 343.034 156.935 354.758 166.351 360.286C175.768 365.815 169.863 372.732 169.863 372.732L132.792 353.883L141.903 334.742L160.032 343.034Z" fill="#030F0F"/>
<path d="M126.766 64.9764C126.766 64.9764 132.156 60.7718 133.492 51.0935C134.526 43.5996 127.837 48.4543 127.837 48.4543C127.837 48.4543 128.531 43.0514 124.722 43.5872C120.912 44.123 118.781 49.7998 118.781 49.7998" fill="#030F0F"/>
<path d="M105.034 44.2192C105.034 44.2192 86.1338 46.3136 92.9661 72.782L94.6387 72.8975L98.0337 73.1328" fill="#030F0F"/>
<path d="M123.601 100.424C123.518 100.413 122.595 116.224 104.82 114.847C92.5149 113.895 88.1275 100.402 87.8454 100.402C89.1723 100.11 90.8116 99.6681 91.4635 99.5161C92.8835 99.1754 94.1696 98.3959 95.1505 97.2814C96.1314 96.1668 96.7608 94.7701 96.9548 93.2768C97.315 91.0356 96.7055 79.5686 96.892 77.3008L115.781 81.6582C115.517 86.4476 113.67 97.551 120.143 99.5161C121.222 99.8411 122.382 100.14 123.601 100.424Z" fill="#E98862"/>
<path opacity="0.52" d="M116.046 94.9783C115.751 93.9929 115.56 92.977 115.478 91.9488C115.271 89.6022 115.313 87.2392 115.603 84.9019C111.764 84.3664 108.147 82.7286 105.163 80.1748C104.812 81.5135 102.884 87.3629 103.418 88.6355C104.426 91.0403 109.169 94.9783 116.046 94.9783Z" fill="#030F0F"/>
<path d="M112.148 91.8489C104.696 91.1581 95.7766 86.2923 95.6482 75.8381L95.5319 66.4057C95.4035 55.9515 100.612 47.4071 110.136 47.2822C119.66 47.1568 126.884 55.5381 127.012 65.9918L127.063 70.1677C127.057 71.6019 126.956 73.0339 126.761 74.4539C126.272 78.2107 125.514 83.9223 123.048 87.7864C120.718 91.4337 116.908 92.2903 112.148 91.8489Z" fill="#E98862"/>
<path d="M115.605 82.2933C117.143 82.3653 118.676 82.0628 120.079 81.4101C120.108 81.3973 120.135 81.3787 120.157 81.3554C120.179 81.3321 120.196 81.3046 120.208 81.2743C120.22 81.244 120.226 81.2117 120.225 81.1791C120.225 81.1465 120.219 81.1142 120.206 81.0842C120.194 81.0542 120.176 81.0271 120.153 81.0043C120.131 80.9814 120.104 80.9634 120.075 80.9513C120.045 80.9391 120.014 80.933 119.983 80.9334C119.951 80.9337 119.92 80.9405 119.891 80.9533C116.866 82.2864 114.12 82.0911 111.949 80.3887C111.905 80.3529 111.859 80.3195 111.812 80.2887C111.758 80.2625 111.696 80.2585 111.638 80.2773C111.581 80.2961 111.533 80.3364 111.503 80.3903C111.473 80.4442 111.463 80.5077 111.476 80.5684C111.489 80.629 111.524 80.6824 111.573 80.718C111.591 80.7292 111.619 80.7519 111.656 80.7833C112.798 81.6817 114.173 82.2075 115.605 82.2933Z" fill="#030F0F"/>
<path d="M115.533 84.6484C115.811 84.6663 116.09 84.6594 116.367 84.6278C116.43 84.6209 116.488 84.5882 116.528 84.537C116.568 84.4858 116.587 84.4202 116.58 84.3547C116.573 84.2893 116.542 84.2292 116.492 84.1878C116.443 84.1465 116.379 84.1271 116.316 84.1341C114.651 84.317 113.857 83.5287 113.823 83.4948C113.778 83.4503 113.717 83.4259 113.655 83.4268C113.592 83.4277 113.532 83.4537 113.488 83.4995C113.444 83.5452 113.418 83.607 113.418 83.6717C113.417 83.7364 113.44 83.7989 113.483 83.846C114.056 84.3499 114.781 84.6335 115.533 84.6484Z" fill="#030F0F"/>
<path d="M123.867 72.1779C124.515 72.1779 125.04 71.635 125.04 70.9654C125.04 70.2958 124.515 69.7529 123.867 69.7529C123.219 69.7529 122.693 70.2958 122.693 70.9654C122.693 71.635 123.219 72.1779 123.867 72.1779Z" fill="#030F0F"/>
<path d="M112.405 71.4347C113.053 71.4347 113.579 70.8919 113.579 70.2222C113.579 69.5526 113.053 69.0098 112.405 69.0098C111.758 69.0098 111.232 69.5526 111.232 70.2222C111.232 70.8919 111.758 71.4347 112.405 71.4347Z" fill="#030F0F"/>
<path d="M96.2788 79.0156C93.3845 79.0538 90.999 75.8844 90.9612 72.8931C90.9234 69.9018 93.2503 68.2218 96.1447 68.1836L97.6606 70.168L98.7665 78.983L96.2788 79.0156Z" fill="#E98862"/>
<path d="M99.1566 74.209C99.1566 74.209 100.134 59.4167 104.474 58.5035C107.365 57.8951 114.375 62.1323 120.867 60.8524C123.708 60.2943 126.405 61.0195 126.679 62.4058C126.787 62.955 128.557 55.064 124.109 49.0771C120.567 44.3114 108.977 42.9632 103.704 44.5261C89.1046 48.8547 95.5473 68.8349 95.5473 68.8349L96.1983 73.9342L99.1566 74.209Z" fill="#030F0F"/>
<path d="M117.353 78.8025C117.359 78.8029 117.365 78.8029 117.372 78.8025C118.304 78.7926 119.868 78.669 119.861 77.9477C119.855 77.35 118.21 70.9171 118.022 70.1855C118.001 70.1285 117.961 70.0815 117.908 70.0536C117.856 70.0257 117.795 70.019 117.738 70.0346C117.681 70.0503 117.632 70.0873 117.6 70.1384C117.568 70.1896 117.555 70.2512 117.565 70.3113C118.296 73.1605 119.384 77.5467 119.389 77.9537C119.298 78.1254 118.335 78.3019 117.369 78.3122C117.308 78.3135 117.25 78.339 117.207 78.3833C117.164 78.4277 117.139 78.4875 117.137 78.5504C117.135 78.6134 117.157 78.6746 117.197 78.7215C117.238 78.7684 117.294 78.7974 117.355 78.8025H117.353Z" fill="#030F0F"/>
<path d="M120.537 64.3917C121.517 64.1129 122.552 64.1129 123.532 64.3917C124.014 64.5255 124.473 64.7333 124.895 65.0083C125.312 65.2775 125.694 65.6 126.033 65.9683C126.098 66.0333 126.135 66.1219 126.138 66.2153C126.14 66.3086 126.107 66.3993 126.046 66.4677C125.984 66.5362 125.899 66.5771 125.809 66.5817C125.719 66.5862 125.63 66.5541 125.563 66.4921L125.542 66.4732C125.228 66.1732 124.879 65.9152 124.503 65.7051C124.134 65.4963 123.737 65.3464 123.324 65.2607C122.513 65.0844 121.671 65.133 120.883 65.4016L120.85 65.4136C120.72 65.4611 120.577 65.4533 120.452 65.3919C120.328 65.3305 120.232 65.2205 120.186 65.0862C120.141 64.9519 120.148 64.8042 120.207 64.6757C120.267 64.5471 120.373 64.4482 120.503 64.4008L120.537 64.3917Z" fill="#030F0F"/>
<path d="M113.596 64.9998C112.85 64.6252 112.021 64.4609 111.194 64.5236C110.775 64.5518 110.361 64.6456 109.969 64.8018C109.57 64.9585 109.191 65.1662 108.842 65.4201L108.82 65.4356C108.745 65.4852 108.654 65.5031 108.567 65.4855C108.48 65.468 108.402 65.4163 108.351 65.3412C108.299 65.2661 108.278 65.1735 108.291 65.0825C108.304 64.9915 108.35 64.9091 108.42 64.8525C108.803 64.5342 109.224 64.2671 109.672 64.0574C110.125 63.8433 110.607 63.7006 111.102 63.634C111.597 63.5621 112.099 63.5608 112.595 63.6302C113.104 63.6955 113.601 63.8353 114.071 64.0453C114.198 64.1023 114.297 64.2089 114.348 64.3417C114.399 64.4746 114.396 64.6228 114.341 64.7538C114.286 64.8847 114.183 64.9877 114.054 65.04C113.926 65.0924 113.782 65.0898 113.656 65.0328C113.646 65.0285 113.636 65.0238 113.627 65.0187L113.596 64.9998Z" fill="#030F0F"/>
<path d="M119.142 54.2083C121.284 53.7457 122.487 50.7289 121.828 47.4701C121.17 44.2112 118.899 41.9444 116.756 42.407C114.614 42.8696 113.411 45.8864 114.07 49.1453C114.729 52.4041 117 54.6709 119.142 54.2083Z" fill="#030F0F"/>
<path d="M137.072 339.722L168.334 237.799H111.668C100.285 237.799 95.5394 227.823 95.5394 216.06C95.5394 204.296 106.73 193.984 118.112 193.984H194.59C201.533 193.984 209.317 198.372 213.128 204.37C216.938 210.368 215.908 219.662 213.147 226.246L163.087 351.902" fill="#03624C"/>
<path opacity="0.8" d="M137.072 339.722L168.334 237.799H111.668C100.285 237.799 95.5394 227.823 95.5394 216.06C95.5394 204.296 106.73 193.984 118.112 193.984H194.59C201.533 193.984 209.317 198.372 213.128 204.37C216.938 210.368 215.908 219.662 213.147 226.246L163.087 351.902" fill="#03624C"/>
<path d="M216.445 361.65L164.173 237.799L95.5385 237.794C79.4564 236.491 72.0911 227.383 72.3254 215.622C72.5563 204.01 78.2454 192.541 89.4303 192.541H181.937C190.213 192.717 196.724 202.168 199.794 210.112L243.249 354.067" fill="#03624C"/>
<path d="M67.6442 192.683C67.6442 192.683 64.5961 213.225 69.4276 224.646C75.4594 238.905 98.0711 237.794 98.0711 237.794L96.7969 192.541L67.6442 192.683Z" fill="#03624C"/>
<path d="M201.761 192.279L153.279 181.896C151.258 181.464 149.376 180.511 147.807 179.128C146.237 177.744 145.03 175.974 144.298 173.98L125.23 122.049C124.649 120.491 124.372 118.829 124.415 117.159C124.457 115.49 124.819 113.845 125.478 112.321C126.137 110.796 127.082 109.421 128.257 108.274C129.432 107.128 130.815 106.233 132.325 105.64C133.836 105.048 135.445 104.77 137.061 104.822C138.676 104.874 140.265 105.255 141.737 105.944C143.209 106.633 144.535 107.615 145.639 108.835C146.743 110.055 147.602 111.488 148.168 113.052L164.849 158.478L206.74 167.448C206.74 167.448 202.601 192.459 201.761 192.279Z" fill="#030F0F"/>
<path d="M145.686 135.239C145.126 142.037 141.158 184.447 140.618 192.82H67.6762C67.257 185.268 65.375 152.247 63.786 137.477C62.2688 123.385 60.1421 116.973 61.8895 112.593C64.9712 104.87 74.7806 101.42 81.4235 100.491C85.4795 99.9236 91.5802 99.5166 91.5802 99.5166C91.5802 99.5166 92.097 110.316 104.414 110.917C121.181 111.733 120.061 99.5166 120.144 99.5166C122.86 99.5166 137.646 101.558 141.343 104.048C146.565 107.566 148.108 112.359 148.169 116.764C148.239 121.834 146.321 127.528 145.686 135.239Z" fill="#030F0F"/>
<path d="M142.819 169.89H142.802C142.775 169.888 142.748 169.88 142.724 169.867C142.7 169.854 142.678 169.836 142.661 169.815C142.643 169.793 142.63 169.768 142.621 169.741C142.613 169.715 142.61 169.686 142.612 169.658L144.506 146.15C144.507 146.121 144.514 146.094 144.527 146.068C144.539 146.043 144.556 146.02 144.577 146.002C144.598 145.983 144.622 145.97 144.648 145.961C144.675 145.953 144.702 145.95 144.73 145.953C144.757 145.956 144.783 145.964 144.808 145.976C144.832 145.989 144.853 146.007 144.871 146.029C144.889 146.05 144.902 146.075 144.91 146.102C144.919 146.129 144.922 146.157 144.92 146.185L143.026 169.694C143.021 169.747 142.998 169.797 142.96 169.833C142.921 169.87 142.871 169.89 142.819 169.89Z" fill="#030F0F"/>
<path d="M154.546 188.158L170.551 137.313C170.832 136.419 171.379 135.641 172.115 135.089C172.851 134.537 173.736 134.239 174.646 134.239H239.85C240.53 134.239 241.2 134.405 241.805 134.724C242.411 135.043 242.935 135.506 243.334 136.074C243.734 136.643 243.997 137.301 244.103 137.995C244.21 138.688 244.155 139.398 243.945 140.066L227.94 190.911C227.659 191.804 227.112 192.583 226.376 193.135C225.64 193.687 224.755 193.985 223.845 193.985H158.641C157.961 193.985 157.291 193.819 156.686 193.5C156.08 193.181 155.556 192.718 155.157 192.15C154.757 191.581 154.494 190.923 154.388 190.229C154.282 189.536 154.336 188.826 154.546 188.158Z" fill="#030F0F"/>
<path opacity="0.2" d="M154.546 188.158L170.551 137.313C170.832 136.419 171.379 135.641 172.115 135.089C172.851 134.537 173.736 134.239 174.646 134.239H239.85C240.53 134.239 241.2 134.405 241.805 134.724C242.411 135.043 242.935 135.506 243.334 136.074C243.734 136.643 243.997 137.301 244.103 137.995C244.21 138.688 244.155 139.398 243.945 140.066L227.94 190.911C227.659 191.804 227.112 192.583 226.376 193.135C225.64 193.687 224.755 193.985 223.845 193.985H158.641C157.961 193.985 157.291 193.819 156.686 193.5C156.08 193.181 155.556 192.718 155.157 192.15C154.757 191.581 154.494 190.923 154.388 190.229C154.282 189.536 154.336 188.826 154.546 188.158Z" fill="white"/>
<path d="M167.602 189.862H123.954C122.866 189.862 121.985 190.773 121.985 191.897V191.95C121.985 193.074 122.866 193.985 123.954 193.985H167.602C168.689 193.985 169.571 193.074 169.571 191.95V191.897C169.571 190.773 168.689 189.862 167.602 189.862Z" fill="#030F0F"/>
<path opacity="0.2" d="M167.602 189.862H123.954C122.866 189.862 121.985 190.773 121.985 191.897V191.95C121.985 193.074 122.866 193.985 123.954 193.985H167.602C168.689 193.985 169.571 193.074 169.571 191.95V191.897C169.571 190.773 168.689 189.862 167.602 189.862Z" fill="white"/>
<path d="M199.245 173.659C203.022 173.659 206.084 170.495 206.084 166.592C206.084 162.689 203.022 159.524 199.245 159.524C195.469 159.524 192.407 162.689 192.407 166.592C192.407 170.495 195.469 173.659 199.245 173.659Z" fill="white"/>
<path d="M146.347 125.762H129.009V147.737H146.347V125.762Z" fill="white"/>
<path d="M129.009 144.087C127.604 144.087 126.232 143.657 125.064 142.85C123.896 142.044 122.986 140.898 122.449 139.557C121.911 138.216 121.771 136.741 122.045 135.318C122.319 133.894 122.995 132.587 123.988 131.56C124.981 130.534 126.246 129.835 127.623 129.552C129.001 129.269 130.428 129.414 131.726 129.97C133.023 130.525 134.132 131.466 134.912 132.672C135.692 133.879 136.109 135.298 136.109 136.749C136.107 138.695 135.358 140.56 134.027 141.935C132.696 143.311 130.891 144.085 129.009 144.087ZM129.009 132.417C128.179 132.417 127.369 132.671 126.679 133.147C125.99 133.623 125.453 134.3 125.135 135.092C124.818 135.883 124.735 136.755 124.897 137.595C125.059 138.435 125.458 139.207 126.044 139.813C126.631 140.419 127.378 140.832 128.191 140.999C129.004 141.166 129.847 141.08 130.613 140.752C131.379 140.424 132.034 139.869 132.494 139.156C132.955 138.444 133.201 137.606 133.201 136.749C133.2 135.6 132.758 134.499 131.972 133.687C131.186 132.875 130.12 132.418 129.009 132.417Z" fill="white"/>
<path d="M130.009 140.005C129.851 139.581 129.553 139.227 129.168 139.007C128.783 138.786 128.336 138.713 127.903 138.799C127.912 138.778 127.916 138.756 127.916 138.734L128.498 138.465C128.905 138.286 129.241 137.967 129.447 137.562C129.653 137.157 129.717 136.691 129.628 136.243C129.567 135.963 129.447 135.7 129.276 135.474C129.105 135.248 128.887 135.064 128.639 134.936C128.391 134.807 128.118 134.737 127.84 134.73C127.563 134.724 127.287 134.781 127.034 134.898L125.662 135.532C125.662 135.526 125.662 135.521 125.659 135.515C125.654 135.504 125.647 135.493 125.639 135.483C125.977 135.22 126.219 134.846 126.325 134.423C126.431 133.999 126.395 133.551 126.223 133.151C125.842 132.086 124.491 132.001 123.599 132.413L120.012 133.908L121.094 132.774C121.434 132.404 121.624 131.914 121.628 131.405C121.631 130.895 121.448 130.403 121.114 130.028C120.934 129.841 120.72 129.693 120.484 129.594C120.248 129.495 119.995 129.447 119.74 129.453C119.485 129.458 119.235 129.517 119.003 129.626C118.771 129.735 118.563 129.892 118.392 130.087L105.638 144.482L110 148.824C111.354 150.172 113.067 151.072 114.92 151.408C116.772 151.743 118.68 151.499 120.397 150.707L128.171 147.106C128.579 146.927 128.914 146.608 129.12 146.203C129.326 145.797 129.39 145.331 129.301 144.883C129.213 144.48 129.003 144.118 128.701 143.847C128.399 143.577 128.022 143.413 127.624 143.38C127.628 143.358 127.628 143.335 127.624 143.313C127.62 143.29 127.611 143.269 127.599 143.25C127.587 143.231 127.571 143.215 127.553 143.203C127.534 143.19 127.514 143.181 127.492 143.177L128.928 142.515C129.382 142.316 129.746 141.946 129.947 141.48C130.148 141.014 130.17 140.487 130.009 140.005Z" fill="#E98862"/>
<path opacity="0.2" d="M123.068 136.75C123.027 136.75 122.987 136.736 122.955 136.709C122.924 136.682 122.902 136.644 122.894 136.602C122.887 136.561 122.893 136.517 122.913 136.48C122.933 136.443 122.965 136.414 123.003 136.399L125.43 135.411C125.451 135.402 125.474 135.398 125.497 135.398C125.52 135.399 125.543 135.404 125.564 135.414C125.586 135.423 125.605 135.437 125.621 135.454C125.637 135.471 125.65 135.491 125.658 135.514C125.667 135.536 125.671 135.56 125.67 135.584C125.67 135.608 125.665 135.631 125.656 135.653C125.646 135.675 125.633 135.695 125.617 135.711C125.6 135.728 125.58 135.741 125.559 135.75L123.133 136.737C123.112 136.746 123.09 136.75 123.068 136.75Z" fill="#030F0F"/>
<path opacity="0.2" d="M124.422 140.295C124.381 140.295 124.342 140.28 124.31 140.253C124.279 140.227 124.257 140.189 124.25 140.148C124.242 140.106 124.248 140.063 124.268 140.026C124.287 139.989 124.319 139.96 124.356 139.944L127.675 138.565C127.718 138.549 127.765 138.552 127.806 138.571C127.847 138.59 127.88 138.625 127.897 138.669C127.914 138.712 127.914 138.761 127.897 138.804C127.88 138.848 127.848 138.883 127.806 138.902L124.488 140.282C124.467 140.291 124.445 140.295 124.422 140.295Z" fill="#030F0F"/>
<path opacity="0.2" d="M125.869 144.145C125.828 144.145 125.788 144.13 125.757 144.103C125.725 144.075 125.703 144.037 125.696 143.995C125.689 143.953 125.696 143.91 125.716 143.873C125.737 143.836 125.769 143.807 125.808 143.792L127.39 143.179C127.433 143.162 127.482 143.163 127.524 143.183C127.567 143.203 127.6 143.24 127.617 143.285C127.633 143.33 127.632 143.38 127.613 143.424C127.593 143.468 127.558 143.503 127.514 143.52L125.932 144.133C125.912 144.141 125.891 144.145 125.869 144.145Z" fill="#030F0F"/>
<path d="M133.698 111.784C133.621 111.784 133.546 111.762 133.481 111.721C133.415 111.68 133.362 111.621 133.327 111.55C132.381 109.644 131.205 107.272 131.337 104.785C131.443 102.807 132.34 101.049 133.207 99.352C133.767 98.3262 134.244 97.2543 134.634 96.1474C135.11 94.62 135.229 92.9981 134.984 91.4138C134.739 89.8295 134.135 88.3274 133.222 87.0298C133.187 86.9846 133.162 86.9327 133.148 86.8774C133.133 86.822 133.13 86.7642 133.137 86.7073C133.145 86.6505 133.163 86.5958 133.191 86.5464C133.22 86.497 133.257 86.4541 133.302 86.42C133.347 86.3859 133.397 86.3614 133.451 86.3479C133.505 86.3345 133.561 86.3323 133.616 86.3416C133.671 86.3509 133.723 86.3715 133.77 86.402C133.817 86.4326 133.858 86.4726 133.89 86.5197C134.881 87.9279 135.538 89.5582 135.805 91.2779C136.072 92.9977 135.942 94.7583 135.427 96.4166C135.023 97.5692 134.528 98.6852 133.945 99.7531C133.081 101.444 132.265 103.041 132.17 104.832C132.049 107.087 133.123 109.25 134.069 111.159C134.102 111.224 134.117 111.297 134.115 111.37C134.112 111.444 134.091 111.515 134.054 111.578C134.017 111.641 133.965 111.693 133.903 111.729C133.841 111.765 133.771 111.784 133.7 111.784H133.698Z" fill="white"/>
<path d="M140.368 118.485C140.276 118.485 140.187 118.454 140.114 118.395C140.041 118.337 139.989 118.255 139.966 118.163C139.943 118.071 139.95 117.974 139.987 117.886C140.023 117.799 140.087 117.726 140.167 117.68C141.707 116.803 141.879 114.36 141.156 112.506C140.797 111.653 140.377 110.83 139.9 110.042C139.262 109.021 138.743 107.926 138.355 106.779C137.958 105.381 137.933 103.898 138.283 102.486C138.632 101.074 139.343 99.7858 140.341 98.7563C140.421 98.6782 140.527 98.6356 140.636 98.6378C140.746 98.64 140.85 98.6868 140.926 98.768C141.002 98.8492 141.045 98.9583 141.043 99.0715C141.042 99.1847 140.998 99.2928 140.92 99.3724C140.03 100.291 139.396 101.439 139.084 102.698C138.773 103.957 138.795 105.28 139.149 106.527C139.518 107.609 140.01 108.642 140.615 109.604C141.114 110.429 141.553 111.291 141.926 112.184C142.773 114.355 142.585 117.283 140.568 118.432C140.507 118.467 140.438 118.485 140.368 118.485Z" fill="white"/>
<path d="M120.261 155.91L59.0873 182.075C56.8817 183.008 54.4609 183.257 52.1207 182.791C49.7805 182.325 47.6222 181.165 45.9095 179.453C44.1968 177.74 43.0039 175.549 42.4765 173.147C41.9492 170.745 42.1102 168.236 42.94 165.927L61.1853 114.425C63.5442 107.861 70.1892 104.087 76.5408 106.525C79.5907 107.696 82.0657 110.071 83.4214 113.127C84.777 116.184 84.9022 119.672 83.7695 122.824L75.4474 147.2L111.3 132.916" fill="#030F0F"/>
<path d="M120.112 156.144C120.079 156.143 120.048 156.133 120.021 156.114C119.993 156.096 119.972 156.069 119.96 156.038L111.059 133.197L75.3265 147.449C75.297 147.46 75.2647 147.463 75.2336 147.456C75.2026 147.45 75.1742 147.434 75.1518 147.41C75.1294 147.387 75.114 147.358 75.1076 147.326C75.1011 147.293 75.1039 147.26 75.1155 147.23L80.6408 132.573C80.6566 132.532 80.6878 132.498 80.7275 132.48C80.7671 132.462 80.8121 132.461 80.8525 132.477C80.8929 132.494 80.9254 132.526 80.9428 132.567C80.9602 132.608 80.9611 132.654 80.9454 132.696L75.5546 146.995L111.092 132.821C111.132 132.805 111.176 132.806 111.216 132.823C111.255 132.841 111.286 132.874 111.302 132.915L120.264 155.911C120.279 155.953 120.278 155.999 120.261 156.041C120.245 156.082 120.213 156.114 120.173 156.132C120.154 156.14 120.133 156.144 120.112 156.144Z" fill="#030F0F"/>
<path d="M64.1042 151.984C64.0659 151.984 64.0288 151.971 63.9992 151.946C63.9696 151.92 63.9495 151.885 63.9424 151.847C63.9352 151.808 63.9416 151.767 63.9602 151.733C63.9789 151.698 64.0087 151.672 64.0444 151.658L75.236 147.106C75.256 147.098 75.2775 147.094 75.2992 147.094C75.3209 147.094 75.3424 147.098 75.3624 147.107C75.3823 147.116 75.4004 147.129 75.4155 147.145C75.4307 147.161 75.4426 147.18 75.4505 147.201C75.4585 147.222 75.4623 147.244 75.4619 147.266C75.4614 147.289 75.4567 147.311 75.4479 147.331C75.4391 147.352 75.4264 147.37 75.4107 147.386C75.3949 147.401 75.3763 147.413 75.356 147.421L64.164 151.972C64.145 151.98 64.1247 151.984 64.1042 151.984Z" fill="#030F0F"/>
<path d="M66.7107 179.019C66.6727 179.019 66.6359 179.006 66.6066 178.981C66.5772 178.956 66.5571 178.922 66.5497 178.883C66.5424 178.845 66.5482 178.805 66.5662 178.77C66.5842 178.736 66.6132 178.709 66.6484 178.694L120.051 155.818C120.071 155.81 120.092 155.806 120.114 155.806C120.135 155.806 120.156 155.81 120.176 155.819C120.196 155.827 120.214 155.84 120.229 155.855C120.244 155.871 120.256 155.89 120.265 155.91C120.273 155.931 120.277 155.953 120.277 155.975C120.277 155.997 120.273 156.019 120.264 156.039C120.256 156.06 120.244 156.078 120.229 156.094C120.214 156.11 120.196 156.122 120.176 156.131L66.773 179.006C66.7533 179.015 66.7321 179.019 66.7107 179.019Z" fill="#030F0F"/>
<path d="M337.832 316.695C337.722 316.695 337.616 316.65 337.538 316.569C336.953 315.964 335.999 304.866 333.429 271.821C332.377 258.3 331.384 245.529 330.659 237.768C330.608 237.213 330.4 237.149 330.331 237.128C329.339 236.818 326.321 239.277 324.637 241.43C324.568 241.519 324.467 241.576 324.358 241.588C324.248 241.6 324.138 241.566 324.053 241.495C323.967 241.423 323.912 241.319 323.9 241.206C323.889 241.093 323.921 240.979 323.99 240.891C325.105 239.467 328.736 235.734 330.57 236.305C330.94 236.42 331.401 236.752 331.487 237.685C332.212 245.453 333.205 258.228 334.257 271.752C335.819 291.833 337.588 314.582 338.169 316.015C338.214 316.079 338.241 316.155 338.246 316.234C338.252 316.312 338.237 316.391 338.202 316.462C338.167 316.532 338.114 316.591 338.049 316.632C337.984 316.673 337.909 316.695 337.832 316.695Z" fill="#030F0F"/>
<path d="M329.592 252.009C336.486 246.298 338.771 237.409 334.696 232.155C330.62 226.901 321.728 227.271 314.835 232.982C307.941 238.693 305.656 247.582 309.731 252.836C313.806 258.09 322.698 257.72 329.592 252.009Z" fill="#00C767"/>
<path opacity="0.2" d="M329.592 252.009C336.486 246.298 338.771 237.409 334.696 232.155C330.62 226.901 321.728 227.271 314.835 232.982C307.941 238.693 305.656 247.582 309.731 252.836C313.806 258.09 322.698 257.72 329.592 252.009Z" fill="white"/>
<path d="M311.663 254.173C311.624 254.173 311.585 254.161 311.552 254.139C311.519 254.117 311.492 254.086 311.475 254.049C311.459 254.012 311.452 253.971 311.458 253.931C311.463 253.89 311.479 253.852 311.504 253.821L331.151 229.335C331.168 229.313 331.189 229.295 331.213 229.281C331.238 229.267 331.264 229.259 331.292 229.256C331.319 229.253 331.347 229.256 331.373 229.264C331.4 229.273 331.424 229.286 331.445 229.304C331.467 229.323 331.484 229.345 331.497 229.37C331.51 229.396 331.517 229.423 331.52 229.452C331.522 229.48 331.519 229.509 331.51 229.536C331.502 229.563 331.488 229.588 331.47 229.61L311.823 254.095C311.804 254.119 311.779 254.139 311.752 254.152C311.724 254.166 311.694 254.173 311.663 254.173Z" fill="white"/>
<path d="M342.117 311.446C342.051 311.446 341.986 311.429 341.927 311.398C341.868 311.367 341.817 311.321 341.779 311.265C341.74 311.209 341.715 311.145 341.706 311.077C341.696 311.009 341.703 310.94 341.725 310.875L349.105 288.941C349.322 288.297 349.692 287.719 350.182 287.26C350.671 286.802 351.264 286.478 351.906 286.318C352.548 286.158 353.218 286.167 353.856 286.344C354.494 286.521 355.078 286.861 355.556 287.332L359.457 291.184C359.537 291.263 359.583 291.371 359.586 291.485C359.588 291.598 359.547 291.709 359.471 291.791C359.395 291.873 359.29 291.921 359.18 291.924C359.07 291.926 358.963 291.883 358.883 291.805L354.982 287.953C354.605 287.581 354.143 287.313 353.64 287.173C353.137 287.034 352.607 287.027 352.101 287.153C351.594 287.279 351.126 287.535 350.74 287.897C350.353 288.258 350.061 288.714 349.889 289.223L342.51 311.157C342.481 311.241 342.428 311.314 342.358 311.366C342.288 311.418 342.204 311.446 342.117 311.446Z" fill="#030F0F"/>
<path d="M370.358 303.328C375.467 299.149 375.164 289.957 369.68 282.798C364.197 275.638 355.61 273.222 350.501 277.401C345.392 281.581 345.696 290.773 351.179 297.932C356.663 305.092 365.25 307.507 370.358 303.328Z" fill="#00C767"/>
<path d="M334.479 315.296C334.386 315.296 334.295 315.264 334.222 315.204C334.149 315.144 334.097 315.06 334.076 314.967L321.691 261.451C321.607 261.086 321.426 260.753 321.17 260.487C320.914 260.221 320.592 260.034 320.239 259.945C319.886 259.856 319.517 259.87 319.171 259.984C318.825 260.098 318.517 260.309 318.279 260.592L314.462 265.151C314.426 265.194 314.383 265.229 314.334 265.254C314.285 265.28 314.232 265.295 314.178 265.299C314.123 265.303 314.068 265.296 314.017 265.278C313.965 265.26 313.917 265.232 313.876 265.195C313.834 265.158 313.801 265.113 313.776 265.063C313.752 265.013 313.737 264.958 313.733 264.901C313.729 264.845 313.736 264.789 313.753 264.735C313.77 264.682 313.798 264.632 313.833 264.589L317.651 260.03C317.989 259.628 318.427 259.329 318.919 259.167C319.41 259.005 319.935 258.987 320.436 259.113C320.936 259.239 321.394 259.506 321.758 259.883C322.121 260.261 322.378 260.735 322.498 261.253L334.882 314.769C334.908 314.879 334.89 314.996 334.832 315.093C334.774 315.19 334.682 315.259 334.575 315.286C334.543 315.293 334.511 315.297 334.479 315.296Z" fill="#030F0F"/>
<path d="M329.912 277.04C331.417 268.043 327.433 259.819 321.013 258.671C314.592 257.524 308.167 263.887 306.661 272.885C305.156 281.882 309.14 290.106 315.561 291.253C321.981 292.401 328.406 286.037 329.912 277.04Z" fill="#00C767"/>
<path d="M337.833 316.695C337.816 316.695 337.799 316.694 337.781 316.692C337.672 316.678 337.573 316.62 337.505 316.53C337.437 316.44 337.406 316.326 337.42 316.213L345.328 249.854C345.414 249.131 345.701 248.449 346.153 247.89C346.605 247.331 347.204 246.919 347.877 246.703C348.551 246.488 349.27 246.478 349.949 246.675C350.628 246.872 351.237 247.268 351.703 247.814L360.742 258.395C360.815 258.48 360.853 258.592 360.846 258.706C360.839 258.819 360.789 258.926 360.706 259.001C360.623 259.076 360.515 259.115 360.405 259.108C360.295 259.101 360.192 259.049 360.119 258.963L351.08 248.382C350.72 247.96 350.249 247.654 349.724 247.502C349.199 247.35 348.643 247.357 348.122 247.524C347.602 247.691 347.139 248.01 346.789 248.442C346.44 248.874 346.219 249.402 346.153 249.961L338.243 316.318C338.231 316.422 338.182 316.517 338.107 316.586C338.031 316.656 337.934 316.694 337.833 316.695Z" fill="#030F0F"/>
<path d="M370.012 264.274C373.165 258.382 369.455 250.022 361.723 245.603C353.992 241.183 345.168 242.377 342.014 248.269C338.861 254.162 342.571 262.521 350.303 266.941C358.034 271.361 366.858 270.167 370.012 264.274Z" fill="#00C767"/>
<path opacity="0.2" d="M370.358 303.328C375.467 299.149 375.164 289.957 369.68 282.798C364.197 275.638 355.61 273.222 350.501 277.401C345.392 281.581 345.696 290.773 351.179 297.932C356.663 305.092 365.25 307.507 370.358 303.328Z" fill="white"/>
<path opacity="0.5" d="M329.912 277.04C331.417 268.043 327.433 259.819 321.013 258.671C314.592 257.524 308.167 263.887 306.661 272.885C305.156 281.882 309.14 290.106 315.561 291.253C321.981 292.401 328.406 286.037 329.912 277.04Z" fill="white"/>
<path opacity="0.5" d="M370.012 264.274C373.165 258.382 369.455 250.022 361.723 245.603C353.992 241.183 345.168 242.377 342.014 248.269C338.861 254.162 342.571 262.521 350.303 266.941C358.034 271.361 366.858 270.167 370.012 264.274Z" fill="white"/>
<path d="M347.947 373H327.717L324.365 306.105H351.3L347.947 373Z" fill="#030F0F"/>
<path opacity="0.3" d="M347.947 373H327.717L324.365 306.105H351.3L347.947 373Z" fill="white"/>
<path d="M370.359 303.54C370.327 303.54 370.296 303.533 370.268 303.519C370.24 303.505 370.215 303.484 370.195 303.459L350.337 277.532C350.303 277.487 350.287 277.43 350.294 277.374C350.3 277.317 350.328 277.265 350.371 277.23C350.414 277.195 350.469 277.178 350.524 277.185C350.579 277.192 350.629 277.22 350.663 277.265L370.521 303.192C370.545 303.223 370.561 303.261 370.565 303.301C370.569 303.341 370.563 303.382 370.546 303.418C370.529 303.455 370.502 303.485 370.469 303.507C370.436 303.528 370.398 303.54 370.359 303.54Z" fill="white"/>
<path d="M368.691 266.352C368.647 266.351 368.604 266.336 368.569 266.309L343.158 247.134C343.136 247.118 343.117 247.097 343.103 247.073C343.089 247.049 343.079 247.022 343.075 246.994C343.071 246.966 343.072 246.938 343.078 246.91C343.085 246.883 343.096 246.857 343.112 246.834C343.128 246.811 343.149 246.792 343.172 246.777C343.195 246.763 343.221 246.753 343.248 246.749C343.275 246.744 343.303 246.746 343.329 246.752C343.356 246.759 343.381 246.771 343.403 246.787L368.814 265.963C368.848 265.99 368.874 266.028 368.887 266.071C368.9 266.113 368.9 266.159 368.886 266.202C368.873 266.245 368.847 266.282 368.812 266.308C368.777 266.335 368.735 266.349 368.691 266.35V266.352Z" fill="white"/>
<path d="M314.528 290.974C314.51 290.974 314.492 290.971 314.474 290.966C314.421 290.952 314.376 290.916 314.348 290.867C314.321 290.817 314.313 290.759 314.327 290.704L322.417 259.381C322.423 259.354 322.435 259.328 322.452 259.305C322.468 259.282 322.489 259.263 322.513 259.249C322.537 259.234 322.563 259.225 322.59 259.221C322.617 259.217 322.645 259.219 322.672 259.226C322.699 259.233 322.723 259.246 322.745 259.264C322.767 259.281 322.785 259.303 322.799 259.327C322.813 259.352 322.821 259.38 322.825 259.408C322.828 259.436 322.826 259.465 322.818 259.492L314.729 290.814C314.717 290.86 314.691 290.901 314.655 290.929C314.618 290.958 314.574 290.974 314.528 290.974Z" fill="white"/>
</g>
<defs>
<clipPath id="clip0_47_466">
<rect width="363" height="370" fill="white" transform="translate(11 26)"/>
</clipPath>
</defs>
</svg>
