<svg width="156" height="163" viewBox="0 0 156 163" fill="none" xmlns="http://www.w3.org/2000/svg">
<g clip-path="url(#clip0_2_12)">
<path d="M5.10001 43.77C16.72 31.8 28.34 19.84 39.95 7.88C41.67 6.49 43.91 4.93 46.67 3.52C49.67 1.99 52.43 1.07 54.66 0.5H100.52L55.3 46.79L52.33 49.52L51.76 21.5L42.95 20.5L44.11 59.2L30.68 72.62C21.73 63.68 12.77 54.73 3.82001 45.79C4.25001 45.12 4.67001 44.45 5.10001 43.78V43.77Z" fill="#00D478" stroke="#00D478" stroke-miterlimit="10"/>
<path d="M1.26001 59.87V107.16L5.74001 118.23L43.47 159.15L54.35 162.5H99.44L1.26001 59.87Z" fill="#00D478" stroke="#00D478" stroke-miterlimit="10"/>
<path d="M87.24 132.65L106.15 114.2L113.59 107.16L126.62 105.48L141.02 107.16L154.76 116.89L114.47 159.82L87.24 132.65Z" fill="#00D478" stroke="#00D478" stroke-miterlimit="10"/>
<path d="M87.24 30.33L109.35 52.49L118.3 55.17L127.25 56.51H134.92C135.57 56.51 150.28 50.47 150.28 50.47L154.76 45.4L113.83 2.17999L87.25 30.33H87.24Z" fill="#00D478" stroke="#00D478" stroke-miterlimit="10"/>
<path d="M76.09 66.57H64.58V78.64H76.09V66.57Z" fill="#00D478" stroke="#00D478" stroke-miterlimit="10"/>
<path d="M92.72 84.02H81.21V96.09H92.72V84.02Z" fill="#00D478" stroke="#00D478" stroke-miterlimit="10"/>
<path d="M76.09 84.02H64.58V96.09H76.09V84.02Z" fill="#00D478" stroke="#00D478" stroke-miterlimit="10"/>
<path d="M92.72 66.57H81.21V78.64H92.72V66.57Z" fill="#00D478" stroke="#00D478" stroke-miterlimit="10"/>
</g>
<defs>
<clipPath id="clip0_2_12">
<rect width="154.76" height="163" fill="white" transform="translate(0.76001)"/>
</clipPath>
</defs>
</svg>
