<svg width="752" height="141" viewBox="0 0 752 141" fill="none" xmlns="http://www.w3.org/2000/svg">
<g clip-path="url(#clip0_32_12460)">
<g clip-path="url(#clip1_32_12460)">
<path d="M6.8244 50.0184C13.8031 42.8875 20.7819 35.7626 27.7546 28.6377C28.7876 27.8096 30.1329 26.8803 31.7905 26.0403C33.5922 25.1288 35.2498 24.5808 36.5891 24.2412H64.1316L36.9735 51.8175L35.1897 53.4438L34.8474 36.7515L29.5563 36.1558L30.253 59.2105L22.1872 67.2052C16.812 61.8793 11.4308 56.5476 6.05566 51.2218C6.31391 50.8226 6.56616 50.4235 6.8244 50.0243V50.0184Z" fill="black" stroke="black" stroke-miterlimit="10"/>
<path d="M4.51807 59.6094V87.7814L7.20866 94.3761L29.8685 118.753L36.4028 120.749H63.4829L4.51807 59.6094Z" fill="black" stroke="black" stroke-miterlimit="10"/>
<path d="M56.1558 102.967L67.5127 91.976L71.981 87.7821L79.8065 86.7812L88.4549 87.7821L96.7068 93.5785L72.5095 119.153L56.1558 102.967Z" fill="black" stroke="black" stroke-miterlimit="10"/>
<path d="M56.1558 42.0119L69.4346 55.2133L74.8097 56.8098L80.1849 57.6081H84.7913C85.1817 57.6081 94.0162 54.0099 94.0162 54.0099L96.7068 50.9896L72.1251 25.2422L56.1618 42.0119H56.1558Z" fill="black" stroke="black" stroke-miterlimit="10"/>
<path d="M49.4593 63.6006H42.5466V70.791H49.4593V63.6006Z" fill="black" stroke="black" stroke-miterlimit="10"/>
<path d="M59.4471 73.9961H52.5344V81.1865H59.4471V73.9961Z" fill="black" stroke="black" stroke-miterlimit="10"/>
<path d="M49.4593 73.9961H42.5466V81.1865H49.4593V73.9961Z" fill="black" stroke="black" stroke-miterlimit="10"/>
<path d="M59.4471 63.6006H52.5344V70.791H59.4471V63.6006Z" fill="black" stroke="black" stroke-miterlimit="10"/>
</g>
<path d="M288.249 44.726C278.141 44.726 269.062 49.896 262.823 58.1286V5.30664H236.777V120.532H262.823V111.678C269.062 119.911 278.141 125.081 288.249 125.081C307.089 125.081 322.357 107.1 322.357 84.9034C322.357 62.7073 307.089 44.726 288.249 44.726ZM286.699 102.339C278.649 102.339 272.125 94.3641 272.125 84.5244C272.125 74.6847 278.649 66.7099 286.699 66.7099C294.748 66.7099 301.272 74.6847 301.272 84.5244C301.272 94.3641 294.748 102.339 286.699 102.339Z" fill="black"/>
<path d="M148.095 45.4834H122.049V125.838H148.095V45.4834Z" fill="black"/>
<path d="M168.87 78.0802C176.234 78.0802 182.204 70.7831 182.204 61.7818C182.204 52.7804 176.234 45.4834 168.87 45.4834C161.507 45.4834 155.537 52.7804 155.537 61.7818C155.537 70.7831 161.507 78.0802 168.87 78.0802Z" fill="#02DF82"/>
<path d="M579.099 46.2422V97.7906C578.28 101.899 576.507 108.206 572.277 113.71C563.297 125.399 549.766 125.005 537.933 124.672C527.143 124.353 517.357 124.08 509.022 115.226C503.49 109.359 500.935 102.203 499.72 97.7906V46.2422H525.766V97.7906H527.143C528.544 99.337 531.831 102.506 536.705 103.385C545.301 104.947 551.564 98.0332 552.432 97.0325C552.643 97.0477 552.842 97.0477 553.053 97.0628V46.2422H579.099Z" fill="black"/>
<path d="M219.412 47.7578H193.366V120.532H219.412V47.7578Z" fill="black"/>
<path d="M207.94 34.1129C215.646 34.1129 221.893 26.4765 221.893 17.0565C221.893 7.63643 215.646 0 207.94 0C200.233 0 193.986 7.63643 193.986 17.0565C193.986 26.4765 200.233 34.1129 207.94 34.1129Z" fill="#02DF82"/>
<path d="M482.355 12.8872V122.049H455.069V74.2904H412.899V120.532H385.612V11.3711H412.899V54.5808H455.069V12.8872H482.355Z" fill="black"/>
<path d="M286.698 102.339C294.747 102.339 301.272 94.3632 301.272 84.5245C301.272 74.6858 294.747 66.71 286.698 66.71C278.65 66.71 272.125 74.6858 272.125 84.5245C272.125 94.3632 278.65 102.339 286.698 102.339Z" fill="#02DF82"/>
<path d="M286.698 102.339C294.747 102.339 301.272 94.3632 301.272 84.5245C301.272 74.6858 294.747 66.71 286.698 66.71C278.65 66.71 272.125 74.6858 272.125 84.5245C272.125 94.3632 278.65 102.339 286.698 102.339Z" fill="white"/>
<path d="M672.121 70.5V122.048H646.075V71.2277C645.864 71.2429 645.666 71.2429 645.455 71.258C640.246 64.9509 628.76 60.8119 620.165 70.5H620.029C619.632 87.1774 619.222 103.855 618.826 120.532H593.982V44.7258H620.029V54.3229C620.438 54.1864 620.86 54.0197 621.269 53.8226C623.167 52.5945 624.99 50.7903 624.99 50.7903C627.098 48.7132 628.289 46.818 628.711 46.2419C631.799 41.9361 639.687 42.7548 643.594 43.2097C658.85 44.6955 670.298 48.2735 672.121 70.5Z" fill="black"/>
<path d="M738.167 78.0812C745.531 78.0812 751.5 70.7841 751.5 61.7828C751.5 52.7814 745.531 45.4844 738.167 45.4844C730.803 45.4844 724.834 52.7814 724.834 61.7828C724.834 70.7841 730.803 78.0812 738.167 78.0812Z" fill="#02DF82"/>
<path d="M683.284 49.2742C686.236 48.2584 689.175 47.2578 692.127 46.242V23.7881L719.252 25.0162C719.662 47.7581 720.083 70.5 720.493 93.242V97.7297L724.834 102.369H732.97C732.945 109.935 732.92 117.515 732.896 125.081C726.582 124.065 720.282 123.064 713.969 122.048L704.369 117.5L696.927 112.952L693.206 106.887L691.966 68.9839H683.284V49.2742Z" fill="black"/>
</g>
<defs>
<clipPath id="clip0_32_12460">
<rect width="751" height="141" fill="white" transform="translate(0.5)"/>
</clipPath>
<clipPath id="clip1_32_12460">
<rect width="92.9455" height="97.1038" fill="white" transform="translate(4.21777 23.9434)"/>
</clipPath>
</defs>
</svg>
